<svg xmlns:mydata="http://www.w3.org/2000/svg" mydata:contrastcolor="ffffff" mydata:template="Default" mydata:presentation="2.5" mydata:layouttype="undefined" mydata:specialfontid="undefined" mydata:id1="285" mydata:id2="125" mydata:companyname="Vitória Lash" mydata:companytagline="designer de sobrancelha e cílios" version="1.1" xmlns="http://www.w3.org/2000/svg" xmlns:xlink="http://www.w3.org/1999/xlink" viewBox="0 35 550 400"><g fill="#b884cb" fill-rule="none" stroke="none" stroke-width="1" stroke-linecap="butt" stroke-linejoin="miter" stroke-miterlimit="10" stroke-dasharray="" stroke-dashoffset="0" font-family="none" font-weight="none" font-size="none" text-anchor="none" style="mix-blend-mode: normal"><g data-paper-data="{&quot;isGlobalGroup&quot;:true,&quot;bounds&quot;:{&quot;x&quot;:149.3821512281302,&quot;y&quot;:115,&quot;width&quot;:251.23569754373958,&quot;height&quot;:240}}"><g data-paper-data="{&quot;isSecondaryText&quot;:true}" fill-rule="nonzero"><path d="M165.21634,353.64861c0.60283,0 1.04004,-0.18714 1.31164,-0.56142c0.2716,-0.37428 0.4074,-0.93571 0.4074,-1.68427c0,-0.37097 -0.03312,-0.68894 -0.09937,-0.95392c-0.06624,-0.26498 -0.17389,-0.48193 -0.32294,-0.65085c-0.14905,-0.16892 -0.3395,-0.29148 -0.57136,-0.36766c-0.23186,-0.07618 -0.5134,-0.11427 -0.84462,-0.11427h-1.02348v4.3324zM162.73216,354.77146v-6.59797h2.55373c0.44384,0 0.85456,0.07453 1.23215,0.22358c0.37759,0.14905 0.70054,0.36269 0.96883,0.64092c0.26829,0.27823 0.47862,0.61608 0.63098,1.01354c0.15236,0.39747 0.22854,0.84793 0.22854,1.35139c0,0.50346 -0.0679,0.9622 -0.2037,1.37623c-0.1358,0.41403 -0.32957,0.76844 -0.5813,1.06323c-0.25173,0.29479 -0.55314,0.52333 -0.90424,0.68563c-0.3511,0.1623 -0.73863,0.24345 -1.16259,0.24345z" data-paper-data="{&quot;glyphName&quot;:&quot;D&quot;,&quot;glyphIndex&quot;:0,&quot;firstGlyphOfWord&quot;:true,&quot;word&quot;:1}"></path><path d="M170.7842,354.77146v-6.59797h4.84911v1.15266h-3.50766v1.41101h3.22943v1.16259h-3.22943v1.69918h3.66664v1.17253z" data-paper-data="{&quot;glyphName&quot;:&quot;E&quot;,&quot;glyphIndex&quot;:1,&quot;word&quot;:1}"></path><path d="M181.82719,350.12108c-0.03312,-0.33785 -0.15568,-0.58958 -0.36766,-0.75519c-0.21198,-0.16561 -0.52996,-0.24842 -0.95392,-0.24842c-0.78169,0 -1.17253,0.26829 -1.17253,0.80487c0,0.19211 0.08115,0.35275 0.24345,0.48193c0.1623,0.12918 0.42231,0.23682 0.78003,0.32294c0.42397,0.09937 0.79162,0.19211 1.10297,0.27823c0.31135,0.08612 0.5962,0.18549 0.85456,0.2981c0.14574,0.05962 0.2832,0.13415 0.41237,0.22358c0.12918,0.08943 0.23848,0.20039 0.32791,0.33288c0.08943,0.13249 0.16064,0.29148 0.21364,0.47696c0.053,0.18549 0.07949,0.41072 0.07949,0.6757c0,0.31797 -0.06624,0.59951 -0.19873,0.84462c-0.13249,0.24511 -0.31135,0.45212 -0.53658,0.62104c-0.22523,0.16892 -0.49021,0.2981 -0.79494,0.38753c-0.30473,0.08943 -0.62601,0.13415 -0.96386,0.13415c-0.96055,0 -1.68262,-0.18549 -2.1662,-0.55646c-0.48359,-0.37097 -0.73863,-0.9208 -0.76513,-1.64949h1.33152c0.00662,0.33785 0.14408,0.60448 0.41237,0.7999c0.26829,0.19542 0.60448,0.29313 1.00858,0.29313c0.43721,0 0.76844,-0.07949 0.99367,-0.23848c0.22523,-0.15899 0.33785,-0.37428 0.33785,-0.64589c0,-0.10599 -0.01325,-0.2037 -0.03975,-0.29313c-0.0265,-0.08943 -0.07784,-0.17058 -0.15402,-0.24345c-0.07618,-0.07287 -0.18052,-0.13746 -0.31301,-0.19377c-0.13249,-0.05631 -0.30473,-0.10765 -0.51671,-0.15402c-0.50346,-0.10599 -0.93902,-0.21364 -1.30668,-0.32294c-0.36766,-0.1093 -0.67073,-0.24511 -0.90921,-0.4074c-0.23848,-0.1623 -0.41403,-0.35938 -0.52665,-0.59123c-0.11262,-0.23186 -0.16892,-0.52665 -0.16892,-0.88437c0,-0.2716 0.04968,-0.52665 0.14905,-0.76513c0.09937,-0.23848 0.25173,-0.4455 0.45709,-0.62104c0.20536,-0.17555 0.45874,-0.31466 0.76016,-0.41734c0.30141,-0.10268 0.65748,-0.15402 1.0682,-0.15402c0.39747,0 0.75519,0.05134 1.07316,0.15402c0.31797,0.10268 0.59123,0.24842 0.81978,0.43721c0.22854,0.1888 0.40575,0.41734 0.53161,0.68563c0.12586,0.26829 0.19542,0.56474 0.20867,0.88933z" data-paper-data="{&quot;glyphName&quot;:&quot;S&quot;,&quot;glyphIndex&quot;:2,&quot;word&quot;:1}"></path><path d="M185.70582,354.77146v-6.59797h1.3812v6.59797z" data-paper-data="{&quot;glyphName&quot;:&quot;I&quot;,&quot;glyphIndex&quot;:3,&quot;word&quot;:1}"></path><path d="M194.52299,354.77146l-0.02981,-0.65582c-0.15899,0.27823 -0.41403,0.49518 -0.76513,0.65085c-0.3511,0.15568 -0.75519,0.23351 -1.21228,0.23351c-0.45709,0 -0.86946,-0.09771 -1.23712,-0.29313c-0.36766,-0.19542 -0.68232,-0.45709 -0.94399,-0.785c-0.26167,-0.32791 -0.46206,-0.70551 -0.60117,-1.13278c-0.13911,-0.42728 -0.20867,-0.86946 -0.20867,-1.32655c0,-0.48359 0.06956,-0.93902 0.20867,-1.3663c0.13911,-0.42728 0.34447,-0.7999 0.61608,-1.11788c0.2716,-0.31797 0.60945,-0.56805 1.01354,-0.75022c0.40409,-0.18217 0.87443,-0.27326 1.41101,-0.27326c0.39084,0 0.75685,0.05631 1.09801,0.16892c0.34116,0.11262 0.63926,0.26829 0.8943,0.46703c0.25504,0.19873 0.4604,0.43556 0.61608,0.71047c0.15568,0.27492 0.24676,0.57798 0.27326,0.90921h-1.39114c-0.01987,-0.15236 -0.07287,-0.29644 -0.15899,-0.43225c-0.08612,-0.1358 -0.19542,-0.25339 -0.32791,-0.35275c-0.13249,-0.09937 -0.28651,-0.17886 -0.46206,-0.23848c-0.17555,-0.05962 -0.35607,-0.08943 -0.54155,-0.08943c-0.55646,0 -1.00195,0.20701 -1.33649,0.62104c-0.33454,0.41403 -0.5018,1.0152 -0.5018,1.80351c0,0.2716 0.03478,0.54486 0.10434,0.81978c0.06956,0.27492 0.17886,0.52333 0.32791,0.74525c0.14905,0.22192 0.3395,0.40244 0.57136,0.54155c0.23186,0.13911 0.50677,0.20867 0.82475,0.20867c0.22523,0 0.43556,-0.03975 0.63098,-0.11924c0.19542,-0.07949 0.366,-0.1888 0.51174,-0.32791c0.14574,-0.13911 0.26001,-0.29976 0.34282,-0.48193c0.08281,-0.18217 0.12421,-0.37594 0.12421,-0.5813h-1.4607v-1.10297h2.75247v3.5474z" data-paper-data="{&quot;glyphName&quot;:&quot;G&quot;,&quot;glyphIndex&quot;:4,&quot;word&quot;:1}"></path><path d="M202.32661,354.77146l-2.82202,-4.43177v4.43177h-1.28183v-6.59797h1.4607l2.62329,4.24297v-4.24297h1.29177v6.59797z" data-paper-data="{&quot;glyphName&quot;:&quot;N&quot;,&quot;glyphIndex&quot;:5,&quot;word&quot;:1}"></path><path d="M206.11581,354.77146v-6.59797h4.84911v1.15266h-3.50766v1.41101h3.22943v1.16259h-3.22943v1.69918h3.66664v1.17253z" data-paper-data="{&quot;glyphName&quot;:&quot;E&quot;,&quot;glyphIndex&quot;:6,&quot;word&quot;:1}"></path><path d="M214.76405,349.31621v1.7588h1.72899c0.37097,0 0.63264,-0.08281 0.785,-0.24842c0.15236,-0.16561 0.22854,-0.37428 0.22854,-0.62601c0,-0.25835 -0.07453,-0.47034 -0.22358,-0.63595c-0.14905,-0.16561 -0.39581,-0.24842 -0.74028,-0.24842zM217.2681,354.77146v-1.69918c0,-0.31797 -0.07287,-0.54486 -0.21861,-0.68066c-0.14574,-0.1358 -0.41734,-0.2037 -0.81481,-0.2037h-1.47063v2.58354h-1.34145v-6.59797h3.34867c0.30473,0 0.5813,0.04803 0.82971,0.14408c0.24842,0.09605 0.46206,0.22854 0.64092,0.39747c0.17886,0.16892 0.31632,0.37097 0.41237,0.60614c0.09605,0.23517 0.14408,0.48855 0.14408,0.76016c0,0.35772 -0.08446,0.67404 -0.25339,0.94896c-0.16892,0.27492 -0.41237,0.46868 -0.73035,0.5813c0.29148,0.09274 0.49849,0.23517 0.62104,0.42728c0.12255,0.19211 0.18383,0.48027 0.18383,0.86449v1.8681z" data-paper-data="{&quot;glyphName&quot;:&quot;R&quot;,&quot;glyphIndex&quot;:7,&quot;lastGlyphOfWord&quot;:true,&quot;word&quot;:1}"></path><path d="M228.19516,353.64861c0.60283,0 1.04004,-0.18714 1.31164,-0.56142c0.2716,-0.37428 0.4074,-0.93571 0.4074,-1.68427c0,-0.37097 -0.03312,-0.68894 -0.09937,-0.95392c-0.06624,-0.26498 -0.17389,-0.48193 -0.32294,-0.65085c-0.14905,-0.16892 -0.3395,-0.29148 -0.57136,-0.36766c-0.23186,-0.07618 -0.5134,-0.11427 -0.84462,-0.11427h-1.02348v4.3324zM225.71099,354.77146v-6.59797h2.55373c0.44384,0 0.85456,0.07453 1.23215,0.22358c0.37759,0.14905 0.70054,0.36269 0.96883,0.64092c0.26829,0.27823 0.47862,0.61608 0.63098,1.01354c0.15236,0.39747 0.22854,0.84793 0.22854,1.35139c0,0.50346 -0.0679,0.9622 -0.2037,1.37623c-0.1358,0.41403 -0.32957,0.76844 -0.5813,1.06323c-0.25173,0.29479 -0.55314,0.52333 -0.90424,0.68563c-0.3511,0.1623 -0.73863,0.24345 -1.16259,0.24345z" data-paper-data="{&quot;glyphName&quot;:&quot;D&quot;,&quot;glyphIndex&quot;:8,&quot;firstGlyphOfWord&quot;:true,&quot;word&quot;:2}"></path><path d="M233.76303,354.77146v-6.59797h4.84911v1.15266h-3.50766v1.41101h3.22943v1.16259h-3.22943v1.69918h3.66664v1.17253z" data-paper-data="{&quot;glyphName&quot;:&quot;E&quot;,&quot;glyphIndex&quot;:9,&quot;lastGlyphOfWord&quot;:true,&quot;word&quot;:2}"></path><path d="M249.33053,350.12108c-0.03312,-0.33785 -0.15568,-0.58958 -0.36766,-0.75519c-0.21198,-0.16561 -0.52996,-0.24842 -0.95392,-0.24842c-0.78169,0 -1.17253,0.26829 -1.17253,0.80487c0,0.19211 0.08115,0.35275 0.24345,0.48193c0.1623,0.12918 0.42231,0.23682 0.78003,0.32294c0.42397,0.09937 0.79162,0.19211 1.10297,0.27823c0.31135,0.08612 0.5962,0.18549 0.85456,0.2981c0.14574,0.05962 0.2832,0.13415 0.41237,0.22358c0.12918,0.08943 0.23848,0.20039 0.32791,0.33288c0.08943,0.13249 0.16064,0.29148 0.21364,0.47696c0.053,0.18549 0.07949,0.41072 0.07949,0.6757c0,0.31797 -0.06624,0.59951 -0.19873,0.84462c-0.13249,0.24511 -0.31135,0.45212 -0.53658,0.62104c-0.22523,0.16892 -0.49021,0.2981 -0.79494,0.38753c-0.30473,0.08943 -0.62601,0.13415 -0.96386,0.13415c-0.96055,0 -1.68262,-0.18549 -2.1662,-0.55646c-0.48359,-0.37097 -0.73863,-0.9208 -0.76513,-1.64949h1.33152c0.00662,0.33785 0.14408,0.60448 0.41237,0.7999c0.26829,0.19542 0.60448,0.29313 1.00858,0.29313c0.43721,0 0.76844,-0.07949 0.99367,-0.23848c0.22523,-0.15899 0.33785,-0.37428 0.33785,-0.64589c0,-0.10599 -0.01325,-0.2037 -0.03975,-0.29313c-0.0265,-0.08943 -0.07784,-0.17058 -0.15402,-0.24345c-0.07618,-0.07287 -0.18052,-0.13746 -0.31301,-0.19377c-0.13249,-0.05631 -0.30473,-0.10765 -0.51671,-0.15402c-0.50346,-0.10599 -0.93902,-0.21364 -1.30668,-0.32294c-0.36766,-0.1093 -0.67073,-0.24511 -0.90921,-0.4074c-0.23848,-0.1623 -0.41403,-0.35938 -0.52665,-0.59123c-0.11262,-0.23186 -0.16892,-0.52665 -0.16892,-0.88437c0,-0.2716 0.04968,-0.52665 0.14905,-0.76513c0.09937,-0.23848 0.25173,-0.4455 0.45709,-0.62104c0.20536,-0.17555 0.45874,-0.31466 0.76016,-0.41734c0.30141,-0.10268 0.65748,-0.15402 1.0682,-0.15402c0.39747,0 0.75519,0.05134 1.07316,0.15402c0.31797,0.10268 0.59123,0.24842 0.81978,0.43721c0.22854,0.1888 0.40575,0.41734 0.53161,0.68563c0.12586,0.26829 0.19542,0.56474 0.20867,0.88933z" data-paper-data="{&quot;glyphName&quot;:&quot;S&quot;,&quot;glyphIndex&quot;:10,&quot;firstGlyphOfWord&quot;:true,&quot;word&quot;:3}"></path><path d="M256.29947,353.81753c0.24511,0 0.47696,-0.04472 0.69557,-0.13415c0.21861,-0.08943 0.40906,-0.22523 0.57136,-0.4074c0.1623,-0.18217 0.28982,-0.41569 0.38256,-0.70054c0.09274,-0.28485 0.13911,-0.6227 0.13911,-1.01354c0,-0.78169 -0.15236,-1.37458 -0.45709,-1.77867c-0.30473,-0.40409 -0.74856,-0.60614 -1.33152,-0.60614c-0.58295,0 -1.0301,0.20205 -1.34145,0.60614c-0.31135,0.40409 -0.46703,0.99698 -0.46703,1.77867c0,0.78169 0.15733,1.35305 0.47199,1.71408c0.31466,0.36103 0.76016,0.54155 1.33649,0.54155zM256.29947,355c-1.02017,0 -1.80351,-0.2981 -2.35003,-0.8943c-0.54652,-0.5962 -0.81978,-1.45407 -0.81978,-2.57361c0,-0.55646 0.06956,-1.0566 0.20867,-1.50044c0.13911,-0.44384 0.34447,-0.81978 0.61608,-1.12782c0.2716,-0.30804 0.60283,-0.54321 0.99367,-0.70551c0.39084,-0.1623 0.84131,-0.24345 1.35139,-0.24345c0.50346,0 0.95227,0.08115 1.34642,0.24345c0.39416,0.1623 0.72372,0.39912 0.9887,0.71047c0.26498,0.31135 0.46703,0.6906 0.60614,1.13775c0.13911,0.44715 0.20867,0.95227 0.20867,1.51535c0,1.13941 -0.26995,1.99728 -0.80984,2.57361c-0.53989,0.57633 -1.31993,0.86449 -2.34009,0.86449z" data-paper-data="{&quot;glyphName&quot;:&quot;O&quot;,&quot;glyphIndex&quot;:11,&quot;word&quot;:3}"></path><path d="M264.97753,353.64861c0.31797,0 0.56639,-0.08943 0.74525,-0.26829c0.17886,-0.17886 0.26829,-0.40409 0.26829,-0.6757c0,-0.29148 -0.08777,-0.50346 -0.26332,-0.63595c-0.17555,-0.13249 -0.419,-0.19873 -0.73035,-0.19873h-1.76873v1.77867zM263.22867,349.31621v1.43089h1.73892c0.55646,0 0.83468,-0.23848 0.83468,-0.71544c0,-0.25173 -0.07121,-0.4339 -0.21364,-0.54652c-0.14243,-0.11262 -0.37594,-0.16892 -0.70054,-0.16892zM261.89715,354.77146v-6.59797h3.2493c0.6492,0 1.14272,0.16064 1.48057,0.48193c0.33785,0.32129 0.50677,0.76016 0.50677,1.31661c0,0.28485 -0.07618,0.53824 -0.22854,0.76016c-0.15236,0.22192 -0.34447,0.37925 -0.57633,0.47199c0.13911,0.053 0.26995,0.1209 0.3925,0.2037c0.12255,0.08281 0.22854,0.1888 0.31797,0.31797c0.08943,0.12918 0.16064,0.28154 0.21364,0.45709c0.053,0.17555 0.07949,0.38256 0.07949,0.62104c0,0.60283 -0.20205,1.08144 -0.60614,1.43585c-0.40409,0.35441 -1.02348,0.53161 -1.85816,0.53161z" data-paper-data="{&quot;glyphName&quot;:&quot;B&quot;,&quot;glyphIndex&quot;:12,&quot;word&quot;:3}"></path><path d="M270.97267,349.31621v1.7588h1.72899c0.37097,0 0.63264,-0.08281 0.785,-0.24842c0.15236,-0.16561 0.22854,-0.37428 0.22854,-0.62601c0,-0.25835 -0.07453,-0.47034 -0.22358,-0.63595c-0.14905,-0.16561 -0.39581,-0.24842 -0.74028,-0.24842zM273.47672,354.77146v-1.69918c0,-0.31797 -0.07287,-0.54486 -0.21861,-0.68066c-0.14574,-0.1358 -0.41734,-0.2037 -0.81481,-0.2037h-1.47063v2.58354h-1.34145v-6.59797h3.34867c0.30473,0 0.5813,0.04803 0.82971,0.14408c0.24842,0.09605 0.46206,0.22854 0.64092,0.39747c0.17886,0.16892 0.31632,0.37097 0.41237,0.60614c0.09605,0.23517 0.14408,0.48855 0.14408,0.76016c0,0.35772 -0.08446,0.67404 -0.25339,0.94896c-0.16892,0.27492 -0.41237,0.46868 -0.73035,0.5813c0.29148,0.09274 0.49849,0.23517 0.62104,0.42728c0.12255,0.19211 0.18383,0.48027 0.18383,0.86449v1.8681z" data-paper-data="{&quot;glyphName&quot;:&quot;R&quot;,&quot;glyphIndex&quot;:13,&quot;word&quot;:3}"></path><path d="M280.33636,349.65405h-0.00994l-0.84462,2.62329h1.6793zM281.97592,354.77146l-0.41734,-1.36133h-2.43449l-0.46703,1.36133h-1.4607l2.355,-6.59797h1.59981l2.32519,6.59797z" data-paper-data="{&quot;glyphName&quot;:&quot;A&quot;,&quot;glyphIndex&quot;:14,&quot;word&quot;:3}"></path><path d="M289.90872,354.77146l-2.82202,-4.43177v4.43177h-1.28183v-6.59797h1.4607l2.62329,4.24297v-4.24297h1.29177v6.59797z" data-paper-data="{&quot;glyphName&quot;:&quot;N&quot;,&quot;glyphIndex&quot;:15,&quot;word&quot;:3}"></path><path d="M299.51088,352.50589c-0.07287,0.37759 -0.1888,0.71875 -0.34778,1.02348c-0.15899,0.30473 -0.35938,0.56639 -0.60117,0.785c-0.24179,0.21861 -0.52168,0.38753 -0.83965,0.50677c-0.31797,0.11924 -0.66907,0.17886 -1.05329,0.17886c-0.43059,0 -0.83303,-0.07287 -1.20731,-0.21861c-0.37428,-0.14574 -0.69723,-0.36435 -0.96883,-0.65582c-0.2716,-0.29148 -0.48524,-0.65085 -0.64092,-1.07813c-0.15568,-0.42728 -0.23351,-0.92577 -0.23351,-1.49547c0,-0.55646 0.07121,-1.05826 0.21364,-1.50541c0.14243,-0.44715 0.34613,-0.82475 0.61111,-1.13278c0.26498,-0.30804 0.58792,-0.54486 0.96883,-0.71047c0.38091,-0.16561 0.80653,-0.24842 1.27687,-0.24842c0.41072,0 0.78334,0.06128 1.11788,0.18383c0.33454,0.12255 0.6227,0.29148 0.86449,0.50677c0.24179,0.2153 0.4339,0.46868 0.57633,0.76016c0.14243,0.29148 0.2302,0.60283 0.26332,0.93405h-1.3812c-0.09274,-0.37759 -0.2716,-0.67073 -0.53658,-0.8794c-0.26498,-0.20867 -0.56308,-0.31301 -0.8943,-0.31301c-0.57633,0 -1.00029,0.20701 -1.2719,0.62104c-0.2716,0.41403 -0.4074,0.98208 -0.4074,1.70414c0,0.73532 0.13415,1.30668 0.40244,1.71408c0.26829,0.4074 0.67073,0.61111 1.20731,0.61111c0.41072,0 0.74028,-0.11096 0.9887,-0.33288c0.24842,-0.22192 0.419,-0.54155 0.51174,-0.95889z" data-paper-data="{&quot;glyphName&quot;:&quot;C&quot;,&quot;glyphIndex&quot;:16,&quot;word&quot;:3}"></path><path d="M301.80957,354.77146v-6.59797h4.84911v1.15266h-3.50766v1.41101h3.22943v1.16259h-3.22943v1.69918h3.66664v1.17253z" data-paper-data="{&quot;glyphName&quot;:&quot;E&quot;,&quot;glyphIndex&quot;:17,&quot;word&quot;:3}"></path><path d="M309.11636,354.77146v-6.59797h1.3812v5.39563h3.26918v1.20234z" data-paper-data="{&quot;glyphName&quot;:&quot;L&quot;,&quot;glyphIndex&quot;:18,&quot;word&quot;:3}"></path><path d="M320.06992,354.77146v-2.96114h-2.57361v2.96114h-1.3812v-6.59797h1.3812v2.48418h2.57361v-2.48418h1.39114v6.59797z" data-paper-data="{&quot;glyphName&quot;:&quot;H&quot;,&quot;glyphIndex&quot;:19,&quot;word&quot;:3}"></path><path d="M326.90969,349.65405h-0.00994l-0.84462,2.62329h1.6793zM328.54924,354.77146l-0.41734,-1.36133h-2.43449l-0.46703,1.36133h-1.4607l2.355,-6.59797h1.59981l2.32519,6.59797z" data-paper-data="{&quot;glyphName&quot;:&quot;A&quot;,&quot;glyphIndex&quot;:20,&quot;lastGlyphOfWord&quot;:true,&quot;word&quot;:3}"></path><path d="M336.9027,354.77146v-6.59797h4.84911v1.15266h-3.50766v1.41101h3.22943v1.16259h-3.22943v1.69918h3.66664v1.17253z" data-paper-data="{&quot;glyphName&quot;:&quot;E&quot;,&quot;glyphIndex&quot;:21,&quot;firstGlyphOfWord&quot;:true,&quot;lastGlyphOfWord&quot;:true,&quot;word&quot;:4}"></path><path d="M354.54697,352.50589c-0.07287,0.37759 -0.1888,0.71875 -0.34778,1.02348c-0.15899,0.30473 -0.35938,0.56639 -0.60117,0.785c-0.24179,0.21861 -0.52168,0.38753 -0.83965,0.50677c-0.31797,0.11924 -0.66907,0.17886 -1.05329,0.17886c-0.43059,0 -0.83303,-0.07287 -1.20731,-0.21861c-0.37428,-0.14574 -0.69723,-0.36435 -0.96883,-0.65582c-0.2716,-0.29148 -0.48524,-0.65085 -0.64092,-1.07813c-0.15568,-0.42728 -0.23351,-0.92577 -0.23351,-1.49547c0,-0.55646 0.07121,-1.05826 0.21364,-1.50541c0.14243,-0.44715 0.34613,-0.82475 0.61111,-1.13278c0.26498,-0.30804 0.58792,-0.54486 0.96883,-0.71047c0.38091,-0.16561 0.80653,-0.24842 1.27687,-0.24842c0.41072,0 0.78334,0.06128 1.11788,0.18383c0.33454,0.12255 0.6227,0.29148 0.86449,0.50677c0.24179,0.2153 0.4339,0.46868 0.57633,0.76016c0.14243,0.29148 0.2302,0.60283 0.26332,0.93405h-1.3812c-0.09274,-0.37759 -0.2716,-0.67073 -0.53658,-0.8794c-0.26498,-0.20867 -0.56308,-0.31301 -0.8943,-0.31301c-0.57633,0 -1.00029,0.20701 -1.2719,0.62104c-0.2716,0.41403 -0.4074,0.98208 -0.4074,1.70414c0,0.73532 0.13415,1.30668 0.40244,1.71408c0.26829,0.4074 0.67073,0.61111 1.20731,0.61111c0.41072,0 0.74028,-0.11096 0.9887,-0.33288c0.24842,-0.22192 0.419,-0.54155 0.51174,-0.95889z" data-paper-data="{&quot;glyphName&quot;:&quot;C&quot;,&quot;glyphIndex&quot;:22,&quot;firstGlyphOfWord&quot;:true,&quot;word&quot;:5}"></path><path d="M356.84566,354.77146v-6.59797h1.3812v6.59797zM356.88541,347.55741l-0.30804,-0.54652l2.0569,-1.20234l0.46703,0.81481z" data-paper-data="{&quot;glyphName&quot;:&quot;Í&quot;,&quot;glyphIndex&quot;:23,&quot;word&quot;:5}"></path><path d="M360.74416,354.77146v-6.59797h1.3812v5.39563h3.26918v1.20234z" data-paper-data="{&quot;glyphName&quot;:&quot;L&quot;,&quot;glyphIndex&quot;:24,&quot;word&quot;:5}"></path><path d="M367.74291,354.77146v-6.59797h1.3812v6.59797z" data-paper-data="{&quot;glyphName&quot;:&quot;I&quot;,&quot;glyphIndex&quot;:25,&quot;word&quot;:5}"></path><path d="M374.73173,353.81753c0.24511,0 0.47696,-0.04472 0.69557,-0.13415c0.21861,-0.08943 0.40906,-0.22523 0.57136,-0.4074c0.1623,-0.18217 0.28982,-0.41569 0.38256,-0.70054c0.09274,-0.28485 0.13911,-0.6227 0.13911,-1.01354c0,-0.78169 -0.15236,-1.37458 -0.45709,-1.77867c-0.30473,-0.40409 -0.74856,-0.60614 -1.33152,-0.60614c-0.58295,0 -1.0301,0.20205 -1.34145,0.60614c-0.31135,0.40409 -0.46703,0.99698 -0.46703,1.77867c0,0.78169 0.15733,1.35305 0.47199,1.71408c0.31466,0.36103 0.76016,0.54155 1.33649,0.54155zM374.73173,355c-1.02017,0 -1.80351,-0.2981 -2.35003,-0.8943c-0.54652,-0.5962 -0.81978,-1.45407 -0.81978,-2.57361c0,-0.55646 0.06956,-1.0566 0.20867,-1.50044c0.13911,-0.44384 0.34447,-0.81978 0.61608,-1.12782c0.2716,-0.30804 0.60283,-0.54321 0.99367,-0.70551c0.39084,-0.1623 0.84131,-0.24345 1.35139,-0.24345c0.50346,0 0.95227,0.08115 1.34642,0.24345c0.39416,0.1623 0.72372,0.39912 0.9887,0.71047c0.26498,0.31135 0.46703,0.6906 0.60614,1.13775c0.13911,0.44715 0.20867,0.95227 0.20867,1.51535c0,1.13941 -0.26995,1.99728 -0.80984,2.57361c-0.53989,0.57633 -1.31993,0.86449 -2.34009,0.86449z" data-paper-data="{&quot;glyphName&quot;:&quot;O&quot;,&quot;glyphIndex&quot;:26,&quot;word&quot;:5}"></path><path d="M384.06561,350.12108c-0.03312,-0.33785 -0.15568,-0.58958 -0.36766,-0.75519c-0.21198,-0.16561 -0.52996,-0.24842 -0.95392,-0.24842c-0.78169,0 -1.17253,0.26829 -1.17253,0.80487c0,0.19211 0.08115,0.35275 0.24345,0.48193c0.1623,0.12918 0.42231,0.23682 0.78003,0.32294c0.42397,0.09937 0.79162,0.19211 1.10297,0.27823c0.31135,0.08612 0.5962,0.18549 0.85456,0.2981c0.14574,0.05962 0.2832,0.13415 0.41237,0.22358c0.12918,0.08943 0.23848,0.20039 0.32791,0.33288c0.08943,0.13249 0.16064,0.29148 0.21364,0.47696c0.053,0.18549 0.07949,0.41072 0.07949,0.6757c0,0.31797 -0.06624,0.59951 -0.19873,0.84462c-0.13249,0.24511 -0.31135,0.45212 -0.53658,0.62104c-0.22523,0.16892 -0.49021,0.2981 -0.79494,0.38753c-0.30473,0.08943 -0.62601,0.13415 -0.96386,0.13415c-0.96055,0 -1.68262,-0.18549 -2.1662,-0.55646c-0.48359,-0.37097 -0.73863,-0.9208 -0.76513,-1.64949h1.33152c0.00662,0.33785 0.14408,0.60448 0.41237,0.7999c0.26829,0.19542 0.60448,0.29313 1.00858,0.29313c0.43721,0 0.76844,-0.07949 0.99367,-0.23848c0.22523,-0.15899 0.33785,-0.37428 0.33785,-0.64589c0,-0.10599 -0.01325,-0.2037 -0.03975,-0.29313c-0.0265,-0.08943 -0.07784,-0.17058 -0.15402,-0.24345c-0.07618,-0.07287 -0.18052,-0.13746 -0.31301,-0.19377c-0.13249,-0.05631 -0.30473,-0.10765 -0.51671,-0.15402c-0.50346,-0.10599 -0.93902,-0.21364 -1.30668,-0.32294c-0.36766,-0.1093 -0.67073,-0.24511 -0.90921,-0.4074c-0.23848,-0.1623 -0.41403,-0.35938 -0.52665,-0.59123c-0.11262,-0.23186 -0.16892,-0.52665 -0.16892,-0.88437c0,-0.2716 0.04968,-0.52665 0.14905,-0.76513c0.09937,-0.23848 0.25173,-0.4455 0.45709,-0.62104c0.20536,-0.17555 0.45874,-0.31466 0.76016,-0.41734c0.30141,-0.10268 0.65748,-0.15402 1.0682,-0.15402c0.39747,0 0.75519,0.05134 1.07316,0.15402c0.31797,0.10268 0.59123,0.24842 0.81978,0.43721c0.22854,0.1888 0.40575,0.41734 0.53161,0.68563c0.12586,0.26829 0.19542,0.56474 0.20867,0.88933z" data-paper-data="{&quot;glyphName&quot;:&quot;S&quot;,&quot;glyphIndex&quot;:27,&quot;lastGlyphOfWord&quot;:true,&quot;word&quot;:5}"></path></g><g data-paper-data="{&quot;isPrimaryText&quot;:true}" fill-rule="nonzero"><path d="M166.48519,288.82095c0,0 0.07497,0 0.14994,0c-0.07497,0 -0.07497,0 -0.14994,0zM151.86561,309.43831c0,0.07497 0.07497,-0.14994 0,0zM214.16754,272.17711c-0.14994,-0.74972 -0.97464,-1.04961 -1.64939,-1.04961c-1.3495,0 -2.47408,0.89967 -3.44872,1.72436c-1.12458,0.89967 -2.09922,2.02425 -3.14883,3.07386c-0.67475,0.82469 -1.3495,1.64939 -7.19734,7.5722c-5.99778,6.37264 -11.6207,13.12014 -16.94373,20.09256c-5.54795,7.27231 -10.94595,14.61959 -15.96909,22.26676c-1.27453,1.94928 -2.54906,3.97353 -3.74861,5.99778c0.29989,-0.97464 0.59978,-2.02425 0.97464,-2.99889c1.49944,-4.49833 3.07386,-8.9217 4.57331,-13.34506c2.02425,-6.07275 3.97353,-12.22048 4.49833,-18.59312c0.22492,-2.17419 0.22492,-4.49833 -0.52481,-6.59756c-0.89967,-2.32414 -3.14883,-3.5237 -5.54795,-3.29878c-3.37375,0.29989 -6.2227,2.54906 -8.39689,5.02314c-2.32414,2.62403 -4.0485,5.77286 -5.54795,8.9217c-0.82469,1.64939 -1.49944,3.29878 -2.02425,5.02314c-0.29989,1.04961 -0.52481,2.09922 -0.67475,3.14883c-0.07497,0.97464 0.29989,1.79933 1.12458,2.32414c0.44983,0.22492 1.27453,0.37486 1.64939,-0.07497c0.29989,-0.37486 0.07497,-0.74972 -0.22492,-0.97464c0,-0.07497 -0.07497,-0.14994 -0.07497,-0.14994v-0.37486v-0.14994v-0.07497c0,-0.07497 0,-0.14994 0,-0.14994c0,-0.07497 0,-0.07497 0,-0.07497v0c0.07497,0 0.07497,-0.07497 0.07497,-0.14994c0,-0.29989 0.07497,-0.67475 0.14994,-0.97464c0.29989,-1.27453 0.74972,-2.54906 1.19956,-3.82358c0.97464,-2.47408 2.24917,-4.94817 3.67364,-7.19734c1.79933,-2.92392 3.97353,-5.84783 6.97242,-7.49722c0.14994,-0.07497 0.29989,-0.22492 0.52481,-0.29989c0.07497,0 0.14994,-0.07497 0.22492,-0.07497c0,0 0.07497,-0.07497 0.14994,-0.07497c0.37486,-0.14994 0.74972,-0.29989 1.12458,-0.37486c0.14994,-0.07497 0.29989,-0.07497 0.44983,-0.07497c0,-0.07497 0,-0.07497 0.07497,-0.07497c-0.07497,0 0,0 0,0v0c0.07497,0 0.07497,0 0.07497,0c0.22492,-0.07497 0.44983,-0.07497 0.67475,-0.07497c-0.07497,0 0.14994,0 0.29989,0.07497c0.07497,0 0.22492,0 0.22492,0l0.14994,0.07497c0.07497,0 0.07497,0 0.07497,0c0.07497,0 0.14994,0.07497 0.22492,0.14994l0.07497,0.07497l0.14994,0.14994c0,0 0.07497,0 0.07497,0.07497c0.07497,0.07497 0.14994,0.14994 0.14994,0.22492h0.07497c0,0 0,0 0,0.07497l0.29989,0.59978c0.14994,0.22492 0.22492,0.44983 0.22492,0.67475c0,0.07497 0,0 0,-0.07497c0.07497,0.07497 0.07497,0.14994 0.07497,0.22492c0,0.14994 0.07497,0.22492 0.07497,0.37486c0.22492,1.12458 0.29989,2.17419 0.29989,3.29878l-0.14994,1.72436c0,0 0,0 0,0.07497v0.07497v0.14994c0,0.07497 0,0.22492 -0.07497,0.37486c0,0.29989 0,0.59978 -0.07497,0.89967c-0.14994,0.97464 -0.29989,2.02425 -0.52481,2.99889c-0.67475,3.5237 -1.64939,6.89745 -2.699,10.2712c-1.42447,4.49833 -2.99889,8.99667 -4.49833,13.42003c-0.97464,2.77397 -1.87431,5.54795 -2.77397,8.32192c-0.37486,1.3495 -0.74972,2.699 -1.04961,4.0485c-0.29989,1.42447 -0.59978,2.84895 -1.12458,4.19845c-0.22492,0.59978 0.59978,1.04961 0.97464,1.19956c0.59978,0.14994 1.27453,0.14994 1.49944,-0.44983c4.42336,-8.24695 9.4465,-16.11903 14.8445,-23.69123c5.02314,-7.12236 10.2712,-14.16975 15.81914,-20.91726c2.77397,-3.44872 5.69789,-6.82247 8.69678,-10.12125l4.94817,-5.24806c1.12458,-1.19956 2.39911,-2.32414 3.44872,-3.59867c1.12458,-1.19956 2.17419,-2.39911 3.37375,-3.5237l0.97464,-0.89967v-0.07497h0.07497c0.07497,0 0.14994,-0.07497 0.22492,-0.14994l0.14994,-0.14994c0.59978,0.59978 2.02425,0.82469 2.24917,0.07497c0.22492,-0.52481 0.29989,-1.04961 0.14994,-1.57442zM151.86561,310.33798v0v0v0v0zM151.94058,310.41295v0zM211.31859,273.97644c-0.07497,0.07497 0.14994,-0.07497 0,0zM168.20956,289.04586c-0.07497,-0.07497 -0.37486,-0.22492 0,0z" data-paper-data="{&quot;glyphName&quot;:&quot;V&quot;,&quot;glyphIndex&quot;:0,&quot;firstGlyphOfWord&quot;:true,&quot;word&quot;:1}"></path><path d="M187.70234,310.18804c0.07497,-0.59978 -0.22492,-0.97464 -0.44983,-1.12458h0.07497c-0.37486,-0.22492 -0.89967,-0.22492 -1.19956,-0.07497l-1.3495,0.97464l-1.12458,1.04961c-0.67475,0.59978 -1.27453,1.3495 -1.79933,2.02425c-1.04961,1.3495 -2.09922,3.07386 -2.99889,4.79822c-0.44983,0.74972 -0.82469,1.72436 -1.04961,2.54906c-0.14994,0.52481 -0.14994,1.19956 0.07497,1.72436c1.3495,2.62403 5.99778,0.59978 7.72214,-0.14994c0.97464,-0.37486 2.32414,-1.04961 3.22381,-1.49944c3.29878,-1.72436 5.77286,-3.29878 8.24695,-4.94817c0.22492,-0.22492 0.74972,-0.44983 2.54906,-1.64939c0.82469,-0.52481 1.57442,-0.97464 2.02425,-1.49944c0.67475,-0.74972 -0.97464,-1.42447 -1.49944,-1.27453c-0.89967,0.44983 -1.79933,0.97464 -3.14883,1.94928c-0.82469,0.52481 -1.79933,1.04961 -2.54906,1.64939l-4.34839,2.699c-0.14994,0.14994 -0.52481,0.29989 -0.74972,0.44983c-0.97464,0.59978 -2.09922,1.19956 -2.77397,1.49944l-1.49944,0.74972c-1.19956,0.44983 -2.39911,1.04961 -3.59867,1.3495l-0.89967,0.22492c-0.22492,0.07497 -0.44983,0.07497 -0.52481,-0.14994c0,-0.22492 0.07497,-0.52481 0.14994,-0.82469c0.22492,-0.89967 0.67475,-1.79933 1.12458,-2.62403c0.29989,-0.67475 0.74972,-1.49944 1.3495,-2.32414c0.97464,-1.49944 2.17419,-2.84895 3.44872,-4.12347l0.82469,-0.74972l0.29989,-0.22492zM188.15217,306.81429c0.89967,0.22492 1.57442,-0.22492 2.24917,-0.67475l0.67475,-0.52481l0.74972,-0.59978c0.37486,-0.37486 -0.07497,-0.89967 -0.29989,-1.04961c-0.29989,-0.29989 -1.19956,-0.59978 -1.64939,-0.22492l-0.59978,0.52481l-0.59978,0.44983l-0.37486,0.22492c-0.07497,0.07497 -0.29989,0.22492 -0.37486,0.22492c-0.29989,0.22492 -0.52481,0.44983 -0.59978,0.67475c0,0.44983 0.44983,0.89967 0.82469,0.97464z" data-paper-data="{&quot;glyphName&quot;:&quot;i&quot;,&quot;glyphIndex&quot;:1,&quot;word&quot;:1}"></path><path d="M223.31415,310.5629c-0.37486,-0.29989 -1.27453,-0.59978 -1.72436,-0.22492c-5.24806,4.12347 -11.17086,8.02203 -17.24362,10.94595c-1.19956,0.59978 -2.24917,0.97464 -3.29878,1.27453c-0.82469,0.22492 -2.09922,0.74972 -2.09922,-0.59978c0,0 0,0 0,-0.07497c0.07497,-0.82469 0.29989,-1.49944 0.52481,-2.17419c1.12458,-3.29878 2.77397,-6.37264 4.34839,-9.4465c1.3495,-2.47408 2.84895,-5.02314 4.19845,-7.49722h6.44761c0.14994,0 0.29989,0 0.44983,0c0,0.22492 0.07497,0.37486 0.22492,0.52481c0.37486,0.44983 1.04961,0.59978 1.64939,0.52481c1.3495,-0.22492 2.54906,-0.67475 3.82358,-0.89967c0.44983,-0.07497 0.67475,-0.52481 0.52481,-0.89967c-0.22492,-0.44983 -0.82469,-0.74972 -1.27453,-0.82469c-1.94928,-0.22492 -3.97353,-0.14994 -5.92281,-0.14994c-1.64939,0 -3.29878,-0.07497 -4.8732,-0.07497c0,0 0.07497,-0.07497 0.07497,-0.14994c0.44983,-0.67475 0.82469,-1.3495 1.19956,-2.09922l0.44983,-0.89967c0.22492,-0.37486 0.59978,-0.82469 0.82469,-1.27453c1.12458,-1.72436 2.17419,-3.59867 3.5237,-5.24806c0.14994,-0.29989 0.14994,-0.59978 -0.07497,-0.82469c-0.22492,-0.29989 -0.67475,-0.44983 -1.12458,-0.44983c-0.44983,0.07497 -0.67475,0.14994 -0.89967,0.44983l-0.52481,0.59978l-1.04961,1.3495l-1.79933,2.699c-0.52481,0.82469 -1.04961,1.64939 -1.49944,2.47408l-0.44983,0.82469c-0.22492,0.37486 -0.44983,0.74972 -0.59978,1.12458c-0.29989,0.52481 -0.59978,0.97464 -0.82469,1.42447c-0.97464,0.07497 -1.94928,0.07497 -2.92392,0.07497h-12.82025c-15.51925,0.14994 -16.79378,0.14994 -17.99334,0.14994c-2.47408,0 -4.8732,0 -7.27231,0.07497h-0.22492c0,0 0,0 -0.07497,0c0.07497,0 0.07497,0 0.14994,0c-0.22492,0 -0.52481,0 -0.67475,0.14994c-0.14994,0.14994 -0.37486,0.37486 -0.29989,0.59978c0.29989,1.12458 1.57442,1.04961 2.47408,0.97464h0.29989h2.32414c3.14883,0 6.2227,-0.07497 9.29656,-0.07497c4.12347,0 8.24695,-0.07497 12.37042,-0.07497c4.27342,-0.07497 8.54684,-0.07497 12.89523,-0.07497h1.42447c-1.27453,2.09922 -2.47408,4.19845 -3.59867,6.37264c-1.72436,3.07386 -3.37375,6.14772 -4.49833,9.4465c-0.37486,1.04961 -0.82469,2.24917 -0.74972,3.37375c0.07497,0.97464 0.67475,1.72436 1.49944,2.17419c1.94928,1.04961 4.49833,0.22492 6.44761,-0.52481c2.92392,-1.19956 5.62292,-2.77397 8.32192,-4.42336c1.94928,-1.19956 3.74861,-2.32414 5.54795,-3.59867c1.72436,-1.27453 3.82358,-2.54906 5.398,-3.97353c0.37486,-0.29989 0,-0.82469 -0.29989,-1.04961z" data-paper-data="{&quot;glyphName&quot;:&quot;t&quot;,&quot;glyphIndex&quot;:2,&quot;word&quot;:1}"></path><path d="M222.48946,307.56401c0.59978,0.07497 1.04961,-0.29989 1.57442,-0.59978c-0.07497,0.07497 0.22492,0 0.22492,-0.07497c0.14994,0 0.29989,-0.07497 0.44983,-0.07497c0.29989,-0.14994 0.52481,-0.22492 0.82469,-0.29989c0.59978,-0.14994 1.12458,-0.29989 1.72436,-0.44983c0.52481,-0.22492 1.19956,-0.37486 1.64939,-0.74972c0.37486,-0.29989 0,-0.82469 -0.29989,-1.04961c-0.37486,-0.29989 -1.04961,-0.52481 -1.49944,-0.29989c-0.22492,0.07497 -0.52481,0.22492 -0.74972,0.37486c-0.14994,0 -0.14994,0 0,0c-0.07497,0 -0.22492,0.07497 -0.29989,0.07497c-0.14994,0.07497 -0.29989,0.14994 -0.44983,0.14994c-0.59978,0.22492 -1.19956,0.37486 -1.79933,0.59978c-0.59978,0.22492 -1.12458,0.44983 -1.64939,0.74972c-0.22492,0.14994 -0.59978,0.37486 -0.67475,0.59978c-0.14994,0.59978 0.52481,0.97464 0.97464,1.04961zM239.05832,309.81318c-0.59978,0.44983 -1.27453,0.74972 -1.94928,1.12458l-2.24917,1.04961c-1.72436,0.67475 -3.44872,1.27453 -5.24806,1.64939h-0.14994v-0.07497c0.44983,-1.12458 0.74972,-2.32414 0,-3.37375c-0.59978,-0.89967 -1.79933,-1.19956 -2.77397,-0.67475c-0.59978,0.37486 -1.12458,1.04961 -1.3495,1.72436c-0.22492,0.44983 -0.22492,1.04961 -0.22492,1.49944c0,0.67475 0.14994,1.3495 0.59978,1.87431c0.07497,0.07497 0.14994,0.14994 0.22492,0.22492c-0.14994,0.22492 -0.37486,0.44983 -0.59978,0.74972c-0.74972,1.04961 -1.64939,2.02425 -2.47408,2.99889c-0.97464,0.97464 -1.79933,1.79933 -2.99889,2.39911l-0.37486,0.22492c0.22492,-0.14994 -0.14994,0.07497 -0.22492,0.07497c-0.14994,0 -0.22492,0.07497 -0.37486,0.07497c-0.07497,0 -0.07497,0.07497 -0.14994,0.07497h-0.22492h-0.07497c-0.07497,-0.14994 -0.14994,-0.29989 -0.14994,-0.44983v-0.29989v-0.22492v-0.07497c0,-0.37486 0.14994,-0.74972 0.22492,-1.04961c0.44983,-1.72436 1.42447,-3.29878 2.47408,-4.64828c1.04961,-1.3495 2.17419,-2.54906 3.44872,-3.59867c0.67475,0 0.97464,-0.82469 0.37486,-1.27453c-0.37486,-0.29989 -1.04961,-0.44983 -1.49944,-0.22492c-1.79933,1.04961 -3.29878,2.54906 -4.57331,4.19845c-1.12458,1.57442 -2.17419,3.37375 -2.62403,5.32303c-0.14994,0.59978 -0.22492,1.27453 -0.07497,1.87431c0.14994,0.74972 0.59978,1.27453 1.19956,1.64939c1.27453,0.74972 2.77397,0.44983 4.0485,-0.07497c1.3495,-0.52481 2.47408,-1.57442 3.44872,-2.62403c0.82469,-0.89967 1.57442,-1.79933 2.32414,-2.77397c0.44983,-0.52481 0.82469,-1.04961 1.19956,-1.57442c0.89967,-0.07497 1.87431,-0.29989 2.54906,-0.37486c1.79933,-0.37486 3.5237,-0.97464 5.17308,-1.64939c1.64939,-0.67475 3.29878,-1.42447 4.64828,-2.54906c0.89967,-0.74972 -0.89967,-1.64939 -1.57442,-1.19956zM218.44096,321.43387c0,0 -0.07497,0 -0.14994,0c0.07497,0 0.14994,0 0.14994,0zM218.51593,321.43387c0.14994,0 0.07497,0 0,0zM227.5126,310.86279c-0.07497,-0.22492 0,-0.07497 0,0zM227.5126,310.63787v0c0,0 0,0 -0.07497,0zM218.74085,321.43387c0.22492,-0.07497 -0.22492,0 0,0z" data-paper-data="{&quot;glyphName&quot;:&quot;ó&quot;,&quot;glyphIndex&quot;:3,&quot;word&quot;:1}"></path><path d="M238.83341,310.11306c-0.74972,0.59978 -1.49944,2.09922 -2.02425,3.37375l-1.57442,2.84895l-0.44983,0.89967c-0.67475,1.27453 -0.82469,1.42447 -2.24917,3.59867l-0.89967,1.3495c-0.14994,0.29989 0.29989,0.97464 0.67475,1.12458c0.29989,0.07497 1.19956,0.29989 1.3495,0c0.07497,-0.07497 0.14994,-0.22492 0.22492,-0.37486c0.52481,-0.74972 0.67475,-0.97464 1.04961,-1.64939l1.72436,-1.94928l1.72436,-1.57442l1.87431,-1.79933l1.3495,-1.04961l1.79933,-1.04961l0.82469,-0.52481l1.42447,-0.82469l0.74972,-0.37486c0.67475,-0.37486 1.42447,-0.74972 2.24917,-1.12458l0.67475,-0.22492c0.14994,-0.07497 0.14994,-0.07497 0.22492,-0.07497c0.74972,-0.22492 1.04961,-0.22492 1.19956,-0.22492c0.59978,0.22492 1.72436,0.44983 2.02425,-0.14994c0.22492,-0.97464 -0.67475,-1.42447 -1.3495,-1.57442c-0.14994,-0.07497 -0.67475,-0.07497 -1.12458,-0.07497c-0.52481,0.07497 -0.59978,0.07497 -0.59978,0.07497c-1.04961,0.14994 -2.17419,0.52481 -3.22381,0.97464l-0.67475,0.29989l-0.44983,0.22492c-2.39911,1.27453 -4.57331,2.77397 -6.52258,4.12347c0.67475,-1.04961 2.24917,-3.82358 1.64939,-3.97353c-0.14994,-0.07497 -0.22492,-0.14994 -0.22492,-0.14994c-0.44983,-0.14994 -1.04961,-0.29989 -1.42447,-0.14994z" data-paper-data="{&quot;glyphName&quot;:&quot;r&quot;,&quot;glyphIndex&quot;:4,&quot;word&quot;:1}"></path><path d="M256.37691,310.18804c0.07497,-0.59978 -0.22492,-0.97464 -0.44983,-1.12458h0.07497c-0.37486,-0.22492 -0.89967,-0.22492 -1.19956,-0.07497l-1.3495,0.97464l-1.12458,1.04961c-0.67475,0.59978 -1.27453,1.3495 -1.79933,2.02425c-1.04961,1.3495 -2.09922,3.07386 -2.99889,4.79822c-0.44983,0.74972 -0.82469,1.72436 -1.04961,2.54906c-0.14994,0.52481 -0.14994,1.19956 0.07497,1.72436c1.3495,2.62403 5.99778,0.59978 7.72214,-0.14994c0.97464,-0.37486 2.32414,-1.04961 3.22381,-1.49944c3.29878,-1.72436 5.77286,-3.29878 8.24695,-4.94817c0.22492,-0.22492 0.74972,-0.44983 2.54906,-1.64939c0.82469,-0.52481 1.57442,-0.97464 2.02425,-1.49944c0.67475,-0.74972 -0.97464,-1.42447 -1.49944,-1.27453c-0.89967,0.44983 -1.79933,0.97464 -3.14883,1.94928c-0.82469,0.52481 -1.79933,1.04961 -2.54906,1.64939l-4.34839,2.699c-0.14994,0.14994 -0.52481,0.29989 -0.74972,0.44983c-0.97464,0.59978 -2.09922,1.19956 -2.77397,1.49944l-1.49944,0.74972c-1.19956,0.44983 -2.39911,1.04961 -3.59867,1.3495l-0.89967,0.22492c-0.22492,0.07497 -0.44983,0.07497 -0.52481,-0.14994c0,-0.22492 0.07497,-0.52481 0.14994,-0.82469c0.22492,-0.89967 0.67475,-1.79933 1.12458,-2.62403c0.29989,-0.67475 0.74972,-1.49944 1.3495,-2.32414c0.97464,-1.49944 2.17419,-2.84895 3.44872,-4.12347l0.82469,-0.74972l0.29989,-0.22492zM256.82674,306.81429c0.89967,0.22492 1.57442,-0.22492 2.24917,-0.67475l0.67475,-0.52481l0.74972,-0.59978c0.37486,-0.37486 -0.07497,-0.89967 -0.29989,-1.04961c-0.29989,-0.29989 -1.19956,-0.59978 -1.64939,-0.22492l-0.59978,0.52481l-0.59978,0.44983l-0.37486,0.22492c-0.07497,0.07497 -0.29989,0.22492 -0.37486,0.22492c-0.29989,0.22492 -0.52481,0.44983 -0.59978,0.67475c0,0.44983 0.44983,0.89967 0.82469,0.97464z" data-paper-data="{&quot;glyphName&quot;:&quot;i&quot;,&quot;glyphIndex&quot;:5,&quot;word&quot;:1}"></path><path d="M292.36359,311.01273c-0.37486,-0.22492 -0.97464,-0.29989 -1.49944,0c-3.14883,2.77397 -6.14772,5.54795 -9.82136,7.49722c-1.57442,0.82469 -2.84895,1.57442 -4.34839,2.02425c-1.79933,0.52481 -2.92392,-0.67475 -2.39911,-2.02425l0.22492,-0.74972c0.22492,-0.82469 0.67475,-1.79933 1.12458,-2.699c0.14994,-0.37486 0.44983,-0.74972 0.67475,-1.12458c1.42447,-2.17419 1.72436,-2.24917 2.32414,-2.99889c0.07497,-0.14994 0.22492,-0.22492 0.29989,-0.37486c0.14994,-0.14994 0.37486,-0.44983 0.37486,-0.59978v-0.07497c0,-0.82469 -1.72436,-1.3495 -2.24917,-0.74972c-0.44983,0.67475 -1.12458,1.27453 -1.64939,1.94928l-0.07497,0.07497l-2.32414,2.09922l-4.34839,4.64828c-0.67475,0.74972 -1.42447,1.49944 -2.24917,2.17419c-0.59978,0.59978 -1.19956,0.97464 -2.02425,1.42447c-0.07497,0.07497 -0.14994,0.07497 -0.22492,0.07497c-0.22492,-0.59978 -0.07497,-1.27453 0.14994,-1.87431c0.44983,-1.42447 1.42447,-2.54906 2.32414,-3.59867c0.89967,-1.12458 2.02425,-2.09922 2.92392,-2.84895c1.04961,-0.74972 2.17419,-1.42447 3.37375,-1.94928c-0.14994,0.07497 0.22492,-0.07497 0.29989,-0.07497c0.07497,-0.07497 0.22492,0 0.29989,-0.07497c0,0 0,0 0.07497,0c0.14994,0.07497 0.22492,0.14994 0.37486,0.14994c0.44983,0.22492 1.04961,0.22492 1.27453,-0.29989c0.37486,-0.82469 -0.59978,-1.3495 -1.27453,-1.57442c-0.59978,-0.07497 -1.3495,0.07497 -1.87431,0.22492c-1.57442,0.52481 -2.84895,1.12458 -3.97353,1.94928c-1.57442,1.12458 -2.92392,2.47408 -4.12347,3.97353c-1.04961,1.42447 -2.17419,2.92392 -2.24917,4.79822c0,0.82469 0.29989,1.72436 0.97464,2.24917c0.97464,0.67475 2.02425,0.67475 2.92392,0.29989c0.82469,-0.29989 1.49944,-0.67475 2.09922,-1.19956c0.74972,-0.52481 1.42447,-1.42447 2.17419,-2.09922c0.82469,-0.74972 1.57442,-1.42447 2.24917,-2.24917c-0.29989,1.04961 -0.44983,2.24917 0.14994,3.14883c0.97464,1.64939 3.29878,1.87431 5.09811,1.64939c1.12458,-0.22492 2.17419,-0.67475 5.17308,-2.32414c0.97464,-0.52481 1.57442,-0.97464 2.84895,-1.79933c2.77397,-1.79933 5.02314,-3.82358 7.49722,-5.99778c0.37486,-0.29989 -0.22492,-0.89967 -0.59978,-1.04961z" data-paper-data="{&quot;glyphName&quot;:&quot;a&quot;,&quot;glyphIndex&quot;:6,&quot;lastGlyphOfWord&quot;:true,&quot;word&quot;:1}"></path><path d="M361.1881,331.18026c-0.22492,-0.52481 -0.97464,-0.89967 -1.49944,-0.89967c-9.22159,-0.97464 -18.59312,-0.14994 -27.73973,1.27453c-4.57331,0.67475 -9.07164,1.49944 -13.64495,2.32414c-4.57331,0.82469 -9.07164,1.79933 -13.56998,2.92392c-2.32414,0.59978 -4.64828,1.3495 -6.97242,2.09922l-3.37375,1.12458l-1.72436,0.67475c-0.22492,0.14994 -0.52481,0.22492 -0.82469,0.37486c-0.29989,0.14994 -0.59978,0.22492 -0.82469,0.52481c-0.22492,0.14994 -0.14994,0.44983 0.07497,0.67475c0.22492,0.37486 0.74972,0.52481 1.19956,0.44983c0.07497,0 0.07497,0 0.14994,0c0.29989,-0.07497 0.67475,-0.14994 0.97464,-0.29989c0.22492,-0.07497 0.44983,-0.14994 0.59978,-0.14994l1.72436,-0.67475c1.04961,-0.37486 2.17419,-0.74972 3.29878,-1.04961c2.24917,-0.74972 4.49833,-1.3495 6.7475,-1.94928c4.49833,-1.12458 9.07164,-2.02425 13.64495,-2.84895c8.99667,-1.72436 17.99334,-3.22381 27.21492,-3.74861c2.24917,-0.14994 4.49833,-0.14994 6.7475,-0.14994h0.82469h0.44983c0.44983,0.07497 -0.29989,0 0.14994,0.07497c0.59978,0 1.19956,0 1.72436,0.07497l1.72436,0.07497c0.44983,0.44983 1.04961,0.59978 1.57442,0.59978c0.44983,0 0.89967,-0.14994 1.19956,-0.44983c0.37486,-0.29989 0.29989,-0.67475 0.14994,-1.04961zM307.65792,332.9796c0,-0.07497 0,0.29989 0,0zM307.7329,333.87927l-0.07497,-0.07497c0.14994,0.22492 0.07497,0.14994 0.07497,0.07497zM307.65792,333.42943v0.22492c0,0 0.07497,0.14994 0.07497,0.22492l0.07497,0.22492c0,0.14994 0.14994,0.29989 0.22492,0.37486c0.37486,0.29989 0.89967,0.59978 1.3495,0.59978c0,0.07497 0,0.07497 0,0.07497c0.07497,0 0.14994,0 0.22492,-0.07497c0.07497,0 0.22492,0 0.29989,0v0c0.29989,-0.14994 0.52481,-0.29989 0.52481,-0.59978c0,-0.29989 -0.14994,-0.44983 -0.37486,-0.59978v0c0,-0.07497 0,-0.07497 0,-0.07497v0c0.07497,-0.07497 0.07497,-0.22492 0.07497,-0.29989l0.22492,-0.82469c0.52481,-1.49944 1.27453,-2.99889 2.02425,-4.42336c0.22492,-0.44983 0.44983,-0.97464 0.74972,-1.42447l0.14994,-0.29989c0.07497,-0.07497 0.22492,-0.44983 0.14994,-0.22492l0.37486,-0.74972l1.79933,-3.14883l3.97353,-6.52258c2.24917,-3.59867 4.57331,-7.12236 6.97242,-10.64606c0.74972,-1.19956 1.57442,-2.39911 2.39911,-3.5237l8.32192,-11.92059l1.87431,-2.62403l0.97464,-1.27453c0.14994,-0.22492 0.29989,-0.37486 0.37486,-0.59978c0.07497,-0.22492 0,-0.44983 0,-0.67475c0.07497,-0.44983 -0.59978,-0.74972 -0.97464,-0.89967c-0.29989,-0.07497 -1.3495,-0.14994 -1.42447,0.37486v0.37486c0,0 0,0 0,0.07497c-0.22492,0.22492 -0.37486,0.44983 -0.52481,0.67475l-1.12458,1.57442l-2.17419,2.92392c-1.42447,1.94928 -2.77397,3.97353 -4.19845,5.99778l-5.02314,7.12236c-2.02425,3.07386 -4.12347,6.14772 -6.07275,9.29656c-2.699,4.19845 -5.32303,8.39689 -7.72214,12.74528c-0.97464,1.79933 -1.94928,3.5237 -2.77397,5.398c-0.22492,0.59978 -0.52481,1.27453 -0.67475,1.87431c-0.07497,0.29989 -0.14994,0.52481 -0.14994,0.74972c0,0 0,0 0,0.07497c0,0 0,0.07497 0,0.29989c0,0 0,0.07497 0,0.14994z" data-paper-data="{&quot;glyphName&quot;:&quot;L&quot;,&quot;glyphIndex&quot;:7,&quot;firstGlyphOfWord&quot;:true,&quot;word&quot;:2}"></path><path d="M358.41413,311.01273c-0.37486,-0.22492 -0.97464,-0.29989 -1.49944,0c-3.14883,2.77397 -6.14772,5.54795 -9.82136,7.49722c-1.57442,0.82469 -2.84895,1.57442 -4.34839,2.02425c-1.79933,0.52481 -2.92392,-0.67475 -2.39911,-2.02425l0.22492,-0.74972c0.22492,-0.82469 0.67475,-1.79933 1.12458,-2.699c0.14994,-0.37486 0.44983,-0.74972 0.67475,-1.12458c1.42447,-2.17419 1.72436,-2.24917 2.32414,-2.99889c0.07497,-0.14994 0.22492,-0.22492 0.29989,-0.37486c0.14994,-0.14994 0.37486,-0.44983 0.37486,-0.59978v-0.07497c0,-0.82469 -1.72436,-1.3495 -2.24917,-0.74972c-0.44983,0.67475 -1.12458,1.27453 -1.64939,1.94928l-0.07497,0.07497l-2.32414,2.09922l-4.34839,4.64828c-0.67475,0.74972 -1.42447,1.49944 -2.24917,2.17419c-0.59978,0.59978 -1.19956,0.97464 -2.02425,1.42447c-0.07497,0.07497 -0.14994,0.07497 -0.22492,0.07497c-0.22492,-0.59978 -0.07497,-1.27453 0.14994,-1.87431c0.44983,-1.42447 1.42447,-2.54906 2.32414,-3.59867c0.89967,-1.12458 2.02425,-2.09922 2.92392,-2.84895c1.04961,-0.74972 2.17419,-1.42447 3.37375,-1.94928c-0.14994,0.07497 0.22492,-0.07497 0.29989,-0.07497c0.07497,-0.07497 0.22492,0 0.29989,-0.07497c0,0 0,0 0.07497,0c0.14994,0.07497 0.22492,0.14994 0.37486,0.14994c0.44983,0.22492 1.04961,0.22492 1.27453,-0.29989c0.37486,-0.82469 -0.59978,-1.3495 -1.27453,-1.57442c-0.59978,-0.07497 -1.3495,0.07497 -1.87431,0.22492c-1.57442,0.52481 -2.84895,1.12458 -3.97353,1.94928c-1.57442,1.12458 -2.92392,2.47408 -4.12347,3.97353c-1.04961,1.42447 -2.17419,2.92392 -2.24917,4.79822c0,0.82469 0.29989,1.72436 0.97464,2.24917c0.97464,0.67475 2.02425,0.67475 2.92392,0.29989c0.82469,-0.29989 1.49944,-0.67475 2.09922,-1.19956c0.74972,-0.52481 1.42447,-1.42447 2.17419,-2.09922c0.82469,-0.74972 1.57442,-1.42447 2.24917,-2.24917c-0.29989,1.04961 -0.44983,2.24917 0.14994,3.14883c0.97464,1.64939 3.29878,1.87431 5.09811,1.64939c1.12458,-0.22492 2.17419,-0.67475 5.17308,-2.32414c0.97464,-0.52481 1.57442,-0.97464 2.84895,-1.79933c2.77397,-1.79933 5.02314,-3.82358 7.49722,-5.99778c0.37486,-0.29989 -0.22492,-0.89967 -0.59978,-1.04961z" data-paper-data="{&quot;glyphName&quot;:&quot;a&quot;,&quot;glyphIndex&quot;:8,&quot;word&quot;:2}"></path><path d="M376.55741,311.01273c-0.44983,-0.29989 -1.04961,-0.44983 -1.49944,-0.14994c-0.97464,0.67475 -1.94928,1.72436 -2.84895,2.39911l-2.47408,1.94928c-1.49944,1.12458 -2.77397,2.09922 -4.34839,3.07386c-1.3495,0.82469 -1.79933,1.12458 -3.37375,1.94928c-0.29989,0.14994 -0.59978,0.29989 -1.94928,0.74972c-1.42447,0.44983 -2.84895,0.97464 -4.19845,0.97464c0.07497,-0.22492 0.07497,-0.37486 0.14994,-0.52481c0.37486,-1.42447 0.74972,-2.92392 1.27453,-4.27342l0.74972,-2.09922l0.44983,-0.97464l0.22492,-0.44983l0.22492,-0.44983l1.12458,-1.64939l0.67475,-0.74972c0.37486,-0.37486 0.59978,-0.52481 0.67475,-0.59978l0.89967,-0.59978l0.52481,-0.22492c-0.22492,0.14994 0,0 0.07497,0l0.29989,-0.14994c0,0 0,0 -0.07497,0c0.44983,-0.14994 0.74972,-0.44983 0.52481,-0.89967c-0.29989,-0.59978 -1.19956,-0.89967 -1.87431,-0.74972c-2.84895,0.97464 -4.72325,3.44872 -5.92281,6.07275c-1.19956,2.699 -1.79933,5.398 -2.54906,8.24695l-0.44983,-0.07497l-0.29989,-0.14994c0,0 -0.14994,-0.07497 -0.22492,-0.07497c-0.22492,-0.07497 -0.44983,-0.14994 -0.67475,-0.29989l-0.29989,-0.14994l-0.82469,-0.59978l-0.29989,-0.22492c0,0 -0.14994,-0.22492 -0.22492,-0.22492c-0.14994,-0.22492 -0.29989,-0.37486 -0.44983,-0.52481c-0.14994,-0.14994 -0.22492,-0.29989 -0.37486,-0.44983c-0.22492,-0.59978 -1.19956,-0.74972 -1.79933,-0.59978c-0.22492,0.07497 -0.59978,0.29989 -0.44983,0.59978c0,0.07497 0,0.14994 0.07497,0.22492c0.07497,0.22492 0.22492,0.52481 0.37486,0.67475c0.14994,0.22492 0.44983,0.52481 0.67475,0.74972c0.52481,0.59978 1.04961,1.12458 1.49944,1.72436l1.64939,1.49944c0.37486,0.44983 0.82469,0.89967 1.3495,1.19956c0.44983,0.22492 1.04961,0.44983 1.57442,0.22492c0.22492,0 0.44983,-0.07497 0.52481,-0.22492c0.22492,-0.22492 0.44983,-0.52481 0.52481,-0.82469c0.07497,-0.22492 0.14994,-0.44983 0.22492,-0.67475c0.59978,0 1.27453,-0.07497 1.87431,-0.14994c2.99889,-0.44983 4.72325,-1.27453 7.42225,-2.699c2.02425,-1.12458 3.89856,-2.32414 5.69789,-3.59867c1.27453,-0.89967 1.79933,-1.42447 2.99889,-2.32414c0.59978,-0.44983 1.12458,-0.97464 1.64939,-1.42447c0.67475,-0.59978 1.19956,-0.97464 1.64939,-1.57442c0.22492,-0.37486 0.14994,-0.67475 -0.14994,-0.89967z" data-paper-data="{&quot;glyphName&quot;:&quot;s&quot;,&quot;glyphIndex&quot;:9,&quot;word&quot;:2}"></path><path d="M398.89914,310.26301c-1.12458,0.89967 -2.39911,1.72436 -3.59867,2.54906l-4.42336,3.22381c-1.19956,0.82469 -2.39911,1.57442 -3.59867,2.32414l-2.09922,1.3495l-1.12458,0.52481l-0.44983,0.29989c-0.14994,0 -0.22492,0.07497 -0.29989,0.07497c0,0 -0.07497,0 -0.14994,0.07497c-0.37486,0.14994 -0.97464,0.52481 -0.97464,0.07497v-0.29989l0.22492,-0.59978c0.67475,-2.09922 1.87431,-4.0485 2.92392,-6.07275c0.37486,-0.74972 0.74972,-1.57442 0.97464,-2.39911c0.22492,-0.59978 0.37486,-1.3495 0.14994,-1.94928c-0.22492,-0.67475 -1.19956,-0.82469 -1.72436,-0.67475c-1.19956,0.22492 -2.32414,0.89967 -3.29878,1.64939c-1.19956,0.97464 -2.32414,2.02425 -3.37375,3.14883c-1.3495,1.49944 -2.699,3.07386 -4.0485,4.57331c1.12458,-2.32414 2.32414,-4.57331 3.44872,-6.82247c2.09922,-4.0485 4.12347,-8.097 6.59756,-11.99556c0.74972,-1.19956 1.57442,-2.39911 2.39911,-3.5237l1.79933,-2.39911c0.52481,-0.74972 1.04961,-1.49944 1.64939,-2.17419l0.44983,-0.44983l0.37486,-0.29989l0.22492,-0.14994c0.07497,0 0.07497,0 0.07497,0c0.14994,0.07497 0.37486,0.07497 0.52481,0l0.52481,-0.37486c0.07497,-0.07497 0.07497,-0.29989 0,-0.44983c0,0 0,-0.07497 -0.07497,-0.07497c-0.14994,-0.44983 -0.67475,-0.67475 -1.12458,-0.74972c-1.57442,-0.14994 -2.699,1.04961 -3.59867,2.17419l-1.19956,1.64939c-0.44983,0.67475 -0.89967,1.19956 -1.3495,1.79933c-2.77397,3.74861 -5.02314,7.72214 -7.19734,11.84561l-4.27342,8.32192c-1.42447,2.84895 -2.84895,5.69789 -3.59867,8.77175c-0.07497,0.44983 0.29989,0.74972 0.59978,0.89967c0.44983,0.29989 1.12458,0.37486 1.49944,-0.07497c2.09922,-1.94928 3.82358,-4.34839 5.69789,-6.52258c1.04961,-1.27453 2.17419,-2.47408 3.37375,-3.67364c1.04961,-1.04961 1.94928,-1.94928 3.14883,-2.699c0,0 0,0.07497 -0.07497,0.14994c-0.37486,0.97464 -0.89967,1.94928 -1.42447,2.92392l-1.57442,3.14883c-0.37486,0.82469 -0.82469,1.72436 -0.97464,2.62403c-0.14994,0.97464 0.07497,1.79933 0.97464,2.32414c1.04961,0.59978 2.47408,0.29989 3.5237,-0.14994c1.49944,-0.59978 2.99889,-1.49944 4.34839,-2.39911l3.59867,-2.32414c1.49944,-1.04961 2.99889,-2.17419 4.49833,-3.29878c0.67475,-0.44983 1.3495,-0.97464 1.94928,-1.49944c0.29989,-0.22492 0.59978,-0.52481 0.97464,-0.74972c0.07497,-0.14994 0.22492,-0.22492 0.29989,-0.29989c0.07497,-0.07497 0.14994,-0.07497 0.14994,-0.14994c0.07497,0 0.22492,-0.14994 0.14994,-0.07497c0.82469,-0.67475 -0.89967,-1.64939 -1.49944,-1.12458z" data-paper-data="{&quot;glyphName&quot;:&quot;h&quot;,&quot;glyphIndex&quot;:10,&quot;lastGlyphOfWord&quot;:true,&quot;word&quot;:2}"></path></g><g data-paper-data="{&quot;fillRule&quot;:&quot;evenodd&quot;,&quot;fillRuleOriginal&quot;:&quot;evenodd&quot;,&quot;isIcon&quot;:true,&quot;iconStyle&quot;:&quot;standalone&quot;,&quot;selectedEffects&quot;:{&quot;container&quot;:&quot;enclosed_circle_outline2&quot;,&quot;transformation&quot;:&quot;rotate0;translate50&quot;,&quot;pattern&quot;:&quot;&quot;},&quot;bounds&quot;:{&quot;x&quot;:209.7627823480612,&quot;y&quot;:115,&quot;width&quot;:130.47443530387756,&quot;height&quot;:126.42166448935563},&quot;widthRatioIconToContainer&quot;:1,&quot;heightRatioIconToContainer&quot;:0.7126111862974875,&quot;relativeBoundsIconToContainer&quot;:{&quot;top&quot;:0.10807294470046218,&quot;left&quot;:0},&quot;iconType&quot;:&quot;icon&quot;,&quot;rawIconId&quot;:&quot;1461744&quot;,&quot;isDetailed&quot;:true,&quot;blockLetter&quot;:&quot;O&quot;,&quot;blockLetterId&quot;:0,&quot;suitableAsStandaloneIcon&quot;:true}" fill-rule="evenodd"><path d="M217.52913,189.28482c7.50099,-4.71836 14.16093,-8.9844 20.15985,-12.82703c30.92348,-19.80804 44.28209,-28.36478 64.73241,-29.62893h11.8157c6.83178,0.35097 14.61365,1.24517 23.92912,2.58878c-55.91762,0.51776 -56.95313,7.76633 -111.31748,45.04475c-9.05084,5.61765 -16.22039,5.96765 -17.08594,3.31845v-1.21253c0.46885,-1.79196 2.84332,-4.32968 7.76633,-7.28347zM275,236.91834c0,-0.00001 0.00001,-0.00003 0.00001,-0.00004c0,0.00001 0.00001,0.00003 0.00001,0.00004zM271.37572,223.97445c1.03551,4.6598 0.51776,7.76633 -1.03551,12.94389c1.03551,-4.6598 0.51776,-9.3196 -0.51776,-13.46165c0,0.49808 0.00984,1.02567 0.02019,1.57294c0.06368,3.43583 0.14186,7.65605 -2.09122,10.33544c1.03551,-4.6598 0.51776,-7.76633 -1.55327,-12.42614c0.03158,0.17242 0.06213,0.3412 0.09268,0.5074c0.97027,5.3158 1.35082,7.39977 -2.1637,11.91874c1.55327,-3.10653 1.55327,-5.17756 0.51776,-8.80184c-0.51776,3.62429 -1.03551,6.73082 -3.10653,9.3196c2.07102,-4.14205 1.55327,-7.76633 0.51776,-10.35512c0.0233,0.1398 0.0466,0.27803 0.0699,0.41369c0.48721,2.88079 0.82582,4.88036 -2.14092,7.35265c1.2291,-2.4583 1.16143,-3.61963 1.07962,-5.02327c-0.02154,-0.3702 -0.04411,-0.75748 -0.04411,-1.1898c-0.51776,2.58878 -2.58878,4.6598 -4.14205,6.21307c0.28756,-0.57523 0.54519,-1.0702 0.77425,-1.51081c1.42062,-2.73116 1.74261,-3.35039 1.29677,-7.80879c0,3.62429 -0.51776,5.17756 -3.62429,8.28409c2.07102,-3.10653 2.07102,-5.69531 2.07102,-9.3196c-1.03551,4.14205 -3.10653,6.21307 -6.73082,9.3196c2.58878,-3.62429 3.62429,-5.69531 3.10653,-9.83736c-0.51776,3.62429 -2.58878,7.24858 -5.69531,8.80184c2.58878,-2.58878 4.14205,-5.69531 4.14205,-9.3196c-0.51776,3.10653 -3.62429,5.17756 -6.73082,7.24858c0,0 4.6598,-4.14205 4.6598,-5.69531c-0.51776,1.55327 -5.69531,4.6598 -7.24858,5.17756c2.58878,-2.07102 6.21307,-4.6598 6.21307,-7.24858c-0.51776,2.07102 -2.07102,3.62429 -3.62429,4.14205c0.51776,-0.51776 2.07102,-2.07102 2.07102,-3.62429c-1.03551,1.55327 -4.14205,4.6598 -8.28409,5.69531c4.14205,-1.55327 6.73082,-4.6598 6.73082,-6.73082c-0.51776,1.55327 -4.6598,4.14205 -8.80184,5.17756c4.14205,-1.55327 7.24858,-4.6598 7.76633,-6.21307c-1.03551,1.03551 -6.21307,4.6598 -10.35512,4.6598c3.62429,-1.03551 9.83736,-5.69531 7.76633,-7.76633c3.98252,-0.24904 8.01822,-0.36502 12.02405,-0.47996c20.99168,-0.60318 41.16189,-1.18256 48.55337,-20.74803c9.3196,2.07102 16.56819,2.58878 25.37003,-4.14205c-4.6598,4.6598 -11.39063,8.28409 -22.26349,7.76633c10.87287,4.6598 25.37003,4.14205 33.13636,-4.14205c-6.21307,7.76633 -15.53267,9.3196 -28.99432,8.80184c7.24858,1.55327 22.78125,0.51776 30.02983,-3.10653c-7.24858,4.14205 -25.88778,5.69531 -32.10085,4.14205c4.6598,2.07102 18.63921,2.07102 26.40554,0c-8.28409,2.58878 -15.01491,2.58878 -17.08594,2.58878c2.58878,1.03551 11.39063,1.55327 21.22798,-1.55327c-9.83736,4.14205 -18.63921,4.6598 -31.06534,2.07102c4.14205,2.07102 18.12145,3.10653 25.37003,2.07102c-6.08829,1.30474 -12.54212,1.14838 -15.98622,1.06451c-0.656,-0.01553 -1.20326,-0.02899 -1.61747,-0.02899c5.69531,1.55327 11.90838,2.07102 17.6037,1.55327c-10.35512,2.07102 -19.15696,0 -30.02983,-2.58878c8.28409,4.14205 12.42614,4.14205 21.74574,5.69531c-4.6598,0 -10.35512,0 -16.05042,-1.55327c3.10653,1.55327 9.83736,3.62429 13.46165,4.14205c-8.80184,-0.51776 -17.08594,-2.07102 -24.85227,-6.73082c8.80184,6.73082 15.53267,6.73082 28.99432,8.80184c-15.01491,0 -21.22798,-0.51776 -32.61861,-7.24858c5.17756,3.10653 11.39063,7.24858 23.81676,9.3196c-9.83736,-0.51776 -19.67472,-4.14205 -24.85227,-7.76633c6.21307,5.17756 9.83736,6.21307 18.63921,8.80184c-9.3196,-1.55327 -13.46165,-2.58878 -21.22798,-8.28409c5.69531,4.6598 7.76633,6.21307 16.56819,8.80184c-6.73082,-1.03551 -8.80184,-2.58878 -14.49716,-5.69531c3.62429,3.10653 7.76633,5.69531 16.05042,7.76633c-7.24858,-1.03551 -14.49716,-4.14205 -20.19247,-8.28409c3.62429,3.10653 5.69531,5.17756 10.35512,7.24858c-6.73082,-2.58878 -7.76633,-3.62429 -12.42614,-7.24858c5.17756,5.17756 6.21307,7.24858 13.9794,10.87287c-8.28409,-3.10653 -8.28409,-3.62429 -14.49716,-8.28409c3.62429,3.62429 6.73082,6.73082 12.94389,8.28409c-4.6598,-0.51776 -10.35512,-4.14205 -12.94389,-6.73082c4.6598,6.21307 7.24858,8.28409 15.01491,13.46165c-8.80184,-4.14205 -15.53267,-9.3196 -20.71023,-15.53267c0,0 5.69531,7.76633 10.87287,11.39063c5.17756,3.10653 5.17756,3.62429 5.17756,3.62429c0,0 -5.69531,-3.62429 -8.80184,-5.69531c-2.58878,-2.07102 -4.14205,-3.62429 -4.14205,-3.62429c1.55327,2.58878 3.62429,4.6598 5.69531,6.21307c-3.62429,-2.07102 -6.73082,-5.17756 -9.3196,-7.76633c2.07102,2.58878 4.14205,5.17756 6.73082,8.28409c-5.17756,-5.17756 -6.21307,-6.21307 -7.24858,-7.76633c1.55327,3.10653 3.10653,6.21307 3.62429,8.80184c-2.07102,-3.62429 -4.14205,-7.24858 -6.73082,-10.35512c2.58878,4.14205 3.10653,9.3196 3.10653,12.94389c-1.03551,-4.14205 -3.10653,-8.80184 -4.6598,-11.90838c0.51776,2.07101 1.55326,9.31955 1.03552,12.94385c-1.0355,-5.17754 -0.51776,-8.80182 -3.62429,-12.94385zM231.00471,133.514c5.83197,-5.832 12.52928,-10.34735 20.09191,-13.54605c7.83025,-3.31197 16.03184,-4.96796 24.60478,-4.96796c8.57294,0 16.77454,1.65599 24.60478,4.96796c7.56266,3.19872 14.25996,7.71407 20.09188,13.54605c3.30032,3.30034 6.17901,6.87781 8.63606,10.7324l-0.04383,-0.0054l-1.31263,-0.15624l-1.31454,-0.15067l-0.72662,-0.07983c-2.07991,-3.01592 -4.44238,-5.84637 -7.0874,-8.49133c-5.59143,-5.59161 -12.01193,-9.92053 -19.26152,-12.98677c-7.50465,-3.17424 -15.36671,-4.76136 -23.5862,-4.76136c-8.21948,0 -16.08155,1.58712 -23.5862,4.76136c-7.24948,3.06626 -13.67,7.39519 -19.26156,12.98677c-5.59158,5.59157 -9.9205,12.01208 -12.98677,19.26152c-3.17427,7.5048 -4.7614,15.36689 -4.7614,23.58627c0,2.5906 0.15767,5.14568 0.47299,7.66527l-1.59021,1.0051l-0.09803,0.06364l-0.73866,0.49813c-0.44058,-3.02799 -0.66087,-6.10536 -0.66087,-9.23214c0,-8.57289 1.65599,-16.77451 4.96796,-24.60486c3.1987,-7.56259 7.71405,-14.25988 13.54605,-20.09188zM333.94406,153.60588c3.31197,7.83035 4.96796,16.03197 4.96796,24.60486c0,4.14016 -0.38622,8.19372 -1.15867,12.16067l-2.50277,-0.83425c0.69795,-3.6969 1.04692,-7.47237 1.04692,-11.32642c0,-8.21941 -1.58723,-16.0815 -4.76171,-23.58627c-0.16399,-0.38772 -0.33159,-0.77308 -0.5028,-1.15607l2.82976,-0.05388c0.02719,0.06372 0.05429,0.12751 0.0813,0.19136zM275.7014,241.42166c-4.88481,0 -9.64913,-0.53767 -14.29296,-1.61302l8.47433,0.99696l0.45735,0.02683h4.65974l1.07532,-0.15066l3.62428,-1.03545l4.06489,-1.36365c1.25092,-0.16504 2.49306,-0.36905 3.72643,-0.61204l6.90596,0.94635c-6.02213,1.86978 -12.25391,2.80467 -18.69534,2.80467zM231.00471,222.90732c-5.75647,-5.75637 -10.23016,-12.35583 -13.42107,-19.79839l2.81862,-0.08329c2.77241,6.18012 6.48676,11.74174 11.14306,16.68487l-0.18711,2.61066l-0.19712,0.3293l-0.13235,0.28086c-0.00801,-0.008 -0.01602,-0.016 -0.02402,-0.02401z" data-paper-data="{&quot;isPathIcon&quot;:true}"></path></g></g></g><g class="watermark-group" style="opacity:0.10; stroke: white; stroke-width: 2; stroke-opacity: 0.7;"></g></svg>